<svg width="1251" height="463" viewBox="0 0 1251 463" fill="none" xmlns="http://www.w3.org/2000/svg">
<path opacity="0.0946098" d="M147.475 467.268L212.027 339.606C216.026 331.697 215.563 322.189 210.806 314.718L133.947 194.107C129.163 186.622 120.818 182.28 112.062 182.718L-29.3349 189.741C-38.1048 190.207 -45.9729 195.344 -49.972 203.253L-114.523 330.915C-118.522 338.824 -118.06 348.332 -113.303 355.803L-36.4434 476.414C-31.6864 483.885 -23.3417 488.228 -14.5586 487.804L126.838 480.78C135.594 480.342 143.476 475.177 147.475 467.268Z" fill="url(#paint0_linear_643_2)"/>
<path opacity="0.0946098" d="M1067.47 -4.14565L1037.69 136.116C1035.84 144.806 1038.71 153.868 1045.21 159.835L1150.22 256.155C1156.76 262.129 1165.92 264.133 1174.27 261.41L1309.06 217.498C1317.41 214.746 1323.7 207.717 1325.54 199.028L1355.33 58.7661C1357.17 50.0765 1354.3 41.0143 1347.8 35.0471L1242.79 -61.2729C1236.29 -67.2401 1227.12 -69.2439 1218.74 -66.5279L1083.96 -22.6161C1075.61 -19.8937 1069.31 -12.8352 1067.47 -4.14565Z" fill="url(#paint1_linear_643_2)"/>
<path opacity="0.0946098" d="M331.299 479.224L362.602 417.316C364.546 413.471 364.32 408.874 362.002 405.256L324.731 346.76C322.413 343.142 318.375 341.04 314.125 341.24L245.552 344.652C241.302 344.852 237.477 347.374 235.546 351.192L204.243 413.1C202.298 416.946 202.525 421.542 204.843 425.16L242.114 483.656C244.432 487.275 248.47 489.376 252.72 489.176L321.293 485.764C325.516 485.55 329.368 483.042 331.299 479.224Z" fill="url(#paint2_linear_643_2)"/>
<path opacity="0.0946098" d="M886.86 32.5734L872.417 100.592C871.52 104.817 872.911 109.197 876.073 112.083L926.997 158.8C930.16 161.686 934.596 162.656 938.65 161.347L1004.02 140.045C1008.07 138.736 1011.12 135.296 1012.01 131.101L1026.46 63.0824C1027.35 58.8574 1025.96 54.4773 1022.8 51.5913L971.875 4.87432C968.712 1.98826 964.276 1.01869 960.223 2.3276L894.856 23.6291C890.832 24.9444 887.751 28.3785 886.86 32.5734Z" fill="url(#paint3_linear_643_2)"/>
<path opacity="0.0946098" d="M279.928 311.971L294.766 282.626C295.69 280.798 295.562 278.63 294.496 276.905L276.827 249.175C275.721 247.463 273.81 246.468 271.794 246.556L239.286 248.172C237.27 248.259 235.473 249.46 234.549 251.287L219.711 280.632C218.787 282.459 218.915 284.627 219.98 286.353L237.649 314.082C238.756 315.795 240.667 316.789 242.683 316.702L275.19 315.086C277.194 314.957 279.004 313.798 279.928 311.971Z" fill="url(#paint4_linear_643_2)"/>
<path opacity="0.0946098" d="M979.149 180.639L972.303 212.88C971.877 214.888 972.553 216.948 974.023 218.335L998.164 240.48C999.669 241.844 1001.77 242.303 1003.69 241.689L1034.68 231.593C1036.61 230.979 1038.04 229.347 1038.46 227.34L1045.31 195.098C1045.74 193.091 1045.06 191.03 1043.59 189.643L1019.45 167.498C1017.94 166.134 1015.84 165.675 1013.92 166.289L982.93 176.386C981.028 177.036 979.575 178.631 979.149 180.639Z" fill="url(#paint5_linear_643_2)"/>
<defs>
<linearGradient id="paint0_linear_643_2" x1="124.497" y1="185.447" x2="-30.4988" y2="483.268" gradientUnits="userSpaceOnUse">
<stop stop-color="#D4145A"/>
<stop offset="1" stop-color="#2E3192"/>
</linearGradient>
<linearGradient id="paint1_linear_643_2" x1="1161.56" y1="262.039" x2="1233.42" y2="-66.7433" gradientUnits="userSpaceOnUse">
<stop stop-color="#D4145A"/>
<stop offset="1" stop-color="#2E3192"/>
</linearGradient>
<linearGradient id="paint2_linear_643_2" x1="320.152" y1="342.506" x2="244.969" y2="486.967" gradientUnits="userSpaceOnUse">
<stop stop-color="#D4145A"/>
<stop offset="1" stop-color="#2E3192"/>
</linearGradient>
<linearGradient id="paint3_linear_643_2" x1="932.506" y1="161.707" x2="967.36" y2="2.22705" gradientUnits="userSpaceOnUse">
<stop stop-color="#D4145A"/>
<stop offset="1" stop-color="#2E3192"/>
</linearGradient>
<linearGradient id="paint4_linear_643_2" x1="274.645" y1="247.178" x2="239.011" y2="315.647" gradientUnits="userSpaceOnUse">
<stop stop-color="#D4145A"/>
<stop offset="1" stop-color="#2E3192"/>
</linearGradient>
<linearGradient id="paint5_linear_643_2" x1="1000.78" y1="241.836" x2="1017.3" y2="166.249" gradientUnits="userSpaceOnUse">
<stop stop-color="#D4145A"/>
<stop offset="1" stop-color="#2E3192"/>
</linearGradient>
</defs>
</svg>
